<svg version="1.1" id="Layer_1" xmlns="http://www.w3.org/2000/svg" xmlns:xlink="http://www.w3.org/1999/xlink" x="0px" y="0px"
	 width="100%" viewBox="0 0 410 68" enable-background="new 0 0 410 68" xml:space="preserve">
<path fill="#FFFFFF" opacity="1.000000" stroke="none" 
	d="
M290.000000,1.000000 
	C294.689240,1.000000 299.378510,1.000000 304.380127,1.393456 
	C304.692505,19.681658 304.692505,37.576405 304.692505,55.996292 
	C308.079041,56.536694 311.840454,57.136913 316.166199,57.827187 
	C316.166199,49.722927 316.166199,42.000816 316.166199,34.178089 
	C324.996246,36.336235 324.996552,36.336235 324.999847,44.896881 
	C325.001129,48.227207 324.808380,51.574001 325.091522,54.880108 
	C325.212250,56.290249 326.014557,58.433472 327.045898,58.825256 
	C330.096161,59.983978 333.415039,60.435562 335.999939,61.021252 
	C335.999939,53.841309 336.476410,47.374508 335.821167,41.024475 
	C335.428528,37.219559 333.266754,33.597195 331.856415,29.774225 
	C332.613403,28.567791 334.902771,26.445793 335.311615,24.008364 
	C337.281006,12.267427 336.619843,3.362990 322.049255,1.887158 
	C321.673401,1.849089 321.348602,1.307018 321.000000,0.999998 
	C329.687561,1.000000 338.375122,1.000000 347.325684,1.358185 
	C345.830414,1.917800 344.072174,2.119231 342.176483,2.336406 
	C342.176483,22.220417 342.176483,41.824284 342.176483,61.771400 
	C345.998383,62.590160 349.716003,63.386578 354.073181,64.320007 
	C354.073181,55.114483 354.073181,46.712887 354.073181,38.214581 
	C361.999329,40.057709 361.999268,40.057709 362.000061,47.576740 
	C362.000427,51.073662 361.815186,54.583008 362.047791,58.064426 
	C362.352966,62.631821 362.617554,67.395866 369.075592,67.621689 
	C370.065247,67.656296 371.025909,68.519829 372.000000,69.000000 
	C248.444717,69.000000 124.889420,69.000000 1.167066,69.000000 
	C1.167066,46.334206 1.167066,23.667278 1.167066,1.000000 
	C16.423677,1.000000 31.743181,1.000000 47.392979,1.321153 
	C36.945183,6.995137 33.879230,15.112400 38.651661,26.153601 
	C39.531460,28.189053 40.786690,30.240438 42.373081,31.756685 
	C46.149868,35.366478 50.467236,38.427067 54.111202,42.154373 
	C57.148457,45.261089 58.620377,49.541519 55.931728,53.359760 
	C54.628094,55.211102 51.315357,55.647713 47.854790,57.198757 
	C47.854790,52.691902 47.854790,49.943699 47.854790,46.828465 
	C43.587635,47.419315 39.909294,47.928635 34.709198,48.648666 
	C36.318447,53.683407 36.858047,58.790504 39.398071,62.543835 
	C43.554493,68.685692 48.719688,67.833687 58.126884,64.389008 
	C64.812523,61.940884 70.240791,51.680832 68.232475,43.727551 
	C66.271988,35.963657 60.500744,32.210800 54.887386,27.985794 
	C51.044716,25.093536 47.673531,21.655354 48.230511,16.624901 
	C48.449165,14.650085 50.981258,11.846383 52.901577,11.422742 
	C55.243011,10.906199 57.441105,12.944525 57.032452,16.193928 
	C56.894741,17.288952 57.136272,18.431671 57.211365,19.665791 
	C60.905605,19.665791 64.296310,19.665791 67.525047,19.665791 
	C69.871735,10.359950 65.076698,5.077487 58.000000,1.000000 
	C63.688042,1.000000 69.376083,1.000000 75.332741,1.354493 
	C74.170410,1.921719 72.739464,2.134452 71.356262,2.340088 
	C71.356262,5.649329 71.356262,8.719515 71.356262,12.066048 
	C74.932091,11.644691 78.122536,11.268747 81.455200,10.876044 
	C81.455200,27.579168 81.455200,43.701149 81.455200,59.879433 
	C83.843369,59.543339 85.781624,59.012012 87.707588,59.053368 
	C91.711563,59.139343 93.162437,57.545952 93.084106,53.423470 
	C92.849892,41.097916 92.999985,28.765066 93.000015,16.435064 
	C93.000015,14.687745 93.000015,12.940426 93.000015,10.798591 
	C97.077751,10.798591 100.350418,10.798591 104.000000,10.798591 
	C104.000000,7.266891 104.000000,4.133446 104.000000,1.000000 
	C105.066673,1.000000 106.133339,1.000000 107.576355,1.423342 
	C107.635132,4.272614 107.055756,6.697124 107.042603,9.124703 
	C106.958870,24.576431 107.000000,40.028835 107.000000,56.182896 
	C111.184662,55.662903 114.836037,55.209183 119.017876,54.689545 
	C119.017876,47.162731 119.017876,39.746578 119.017876,32.409397 
	C126.426796,31.625975 127.968094,32.935219 127.997406,39.550915 
	C128.013641,43.215023 127.786156,46.899792 128.128845,50.531818 
	C128.242432,51.735611 129.804535,53.769672 130.684158,53.758987 
	C133.730286,53.721992 136.767502,52.952145 139.621918,52.491264 
	C139.407852,49.238235 139.358200,46.119717 138.965790,43.044937 
	C138.286163,37.719555 137.365540,32.425289 136.620117,27.107582 
	C136.498856,26.242544 136.567764,25.252518 136.871368,24.440939 
	C141.830460,11.184903 140.306244,7.119637 128.000000,1.000000 
	C133.354935,1.000000 138.709854,1.000000 144.532394,1.468657 
	C145.000000,18.478247 145.000000,35.019180 145.000000,52.301872 
	C154.917694,51.796627 164.222275,51.322617 173.673431,50.841137 
	C173.673431,48.104950 173.673431,45.733120 173.673431,43.166180 
	C168.901062,43.166180 164.450821,43.166180 159.642151,43.100632 
	C158.555756,43.004944 157.827789,42.974804 157.060196,42.485207 
	C157.020554,38.243389 157.020554,34.461021 157.020554,29.902098 
	C161.678879,29.446436 166.132019,29.010845 170.667267,28.567223 
	C170.667267,26.068373 170.667267,23.700209 170.667267,21.166166 
	C167.225266,21.166166 164.112946,21.166166 160.614761,21.100746 
	C159.186066,21.005293 158.143250,20.975262 157.060577,20.487902 
	C157.020721,16.776241 157.020721,13.521911 157.020721,10.591257 
	C161.456711,10.011987 165.173401,9.526647 168.991013,9.274067 
	C169.431305,9.351627 169.770645,9.196427 170.406555,9.025941 
	C171.098755,9.020873 171.494415,9.031091 171.991013,9.274069 
	C172.431305,9.351627 172.770645,9.196427 173.438416,8.796111 
	C173.844559,6.033997 173.922287,3.516999 174.000000,1.000000 
	C178.024551,1.000000 182.049088,1.000000 186.536499,1.416217 
	C183.463409,17.928017 179.927429,34.023598 176.234283,50.834679 
	C178.823074,50.834679 182.962708,52.067532 184.986237,50.524780 
	C187.555847,48.565701 188.408813,44.355019 189.966797,41.186691 
	C193.141159,41.186691 196.272736,41.186691 199.589676,41.186691 
	C200.250946,44.121616 200.884598,46.933998 201.485489,49.600937 
	C205.389511,49.600937 209.070663,49.600937 212.758926,49.600937 
	C211.982315,45.867355 211.328552,42.513718 210.583572,39.180466 
	C207.738312,26.450083 204.863678,13.726266 202.000000,1.000000 
	C206.689255,1.000000 211.378510,1.000000 216.533875,1.468657 
	C217.000000,17.856382 217.000000,33.775452 217.000000,49.780228 
	C218.571991,49.879868 219.557190,49.908112 220.534714,50.009815 
	C226.997818,50.682236 226.998199,50.687378 226.999725,44.044056 
	C227.001053,38.253639 227.000000,32.463226 227.000000,26.672810 
	C227.452286,26.635042 227.904572,26.597277 228.356873,26.559509 
	C230.054810,34.579529 231.752762,42.599548 233.488037,50.795853 
	C236.503998,50.795853 239.446304,50.795853 242.875000,50.795853 
	C244.876770,41.366825 246.876816,31.945986 248.876846,22.525146 
	C249.302231,22.601078 249.727600,22.677010 250.152985,22.752941 
	C250.152985,32.343769 250.152985,41.934601 250.152985,51.660301 
	C253.913910,51.660301 257.286682,51.660301 261.000000,51.660301 
	C261.000000,34.548634 261.000000,17.774317 261.000000,1.000000 
	C265.356903,1.000000 269.713806,1.000000 274.532959,1.408012 
	C271.436401,18.362488 267.877625,34.908955 264.252533,51.763729 
	C267.564758,52.264744 270.906372,52.770206 274.316162,53.285980 
	C275.481415,49.725784 275.630402,45.214214 277.679718,44.051182 
	C280.159912,42.643620 284.247925,44.069084 287.661194,44.269802 
	C288.272583,47.890568 288.838745,51.243290 289.422607,54.700951 
	C293.208282,55.021023 296.881989,55.331631 300.980377,55.678146 
	C299.094635,46.579979 297.212036,37.718185 295.429596,28.836296 
	C293.569489,19.567614 291.805817,10.279578 290.000000,1.000000 
z"/>
<path fill="#FFFFFF" opacity="1.000000" stroke="none" 
	d="
M350.000000,1.000000 
	C370.279266,1.000000 390.558563,1.000000 410.918915,1.000000 
	C410.918915,23.552118 410.918915,46.104584 410.918915,69.000000 
	C399.314667,69.000000 387.626007,69.000000 375.445007,68.576660 
	C374.635132,61.573269 374.316559,54.993263 374.000244,48.413151 
	C373.743164,43.065308 373.057465,37.880932 368.464233,34.190395 
	C374.794281,28.350346 374.612671,21.221415 373.315369,13.600660 
	C372.212524,7.122514 368.634888,3.810878 362.324829,2.942922 
	C358.205414,2.376286 354.107544,1.653075 350.000000,1.000000 
z"/>
<path fill="#974EDE" opacity="1.000000" stroke="none" 
	d="
M260.533142,1.000000 
	C261.000000,17.774317 261.000000,34.548634 261.000000,51.660301 
	C257.286682,51.660301 253.913910,51.660301 250.152985,51.660301 
	C250.152985,41.934601 250.152985,32.343769 250.152985,22.752941 
	C249.727600,22.677010 249.302231,22.601078 248.876846,22.525146 
	C246.876816,31.945986 244.876770,41.366825 242.875000,50.795853 
	C239.446304,50.795853 236.503998,50.795853 233.488037,50.795853 
	C231.752762,42.599548 230.054810,34.579529 228.356873,26.559509 
	C227.904572,26.597277 227.452286,26.635042 227.000000,26.672810 
	C227.000000,32.463226 227.001053,38.253639 226.999725,44.044056 
	C226.998199,50.687378 226.997818,50.682236 220.534714,50.009815 
	C219.557190,49.908112 218.571991,49.879868 217.000000,49.780228 
	C217.000000,33.775452 217.000000,17.856382 217.000000,1.468657 
	C221.689255,1.000000 226.378510,1.000000 231.672089,1.372583 
	C234.127869,11.083228 235.979324,20.421289 237.830780,29.759352 
	C239.241135,28.841002 239.771942,27.903215 239.970901,26.899635 
	C241.681259,18.273163 243.331696,9.634809 245.000000,1.000000 
	C250.022095,1.000000 255.044189,1.000000 260.533142,1.000000 
z"/>
<path fill="#974EDE" opacity="1.000000" stroke="none" 
	d="
M349.666687,1.000000 
	C354.107544,1.653075 358.205414,2.376286 362.324829,2.942922 
	C368.634888,3.810878 372.212524,7.122514 373.315369,13.600660 
	C374.612671,21.221415 374.794281,28.350346 368.464233,34.190395 
	C373.057465,37.880932 373.743164,43.065308 374.000244,48.413151 
	C374.316559,54.993263 374.635132,61.573269 374.976379,68.576660 
	C374.250000,69.000000 373.500000,69.000000 372.375000,69.000000 
	C371.025909,68.519829 370.065247,67.656296 369.075592,67.621689 
	C362.617554,67.395866 362.352966,62.631821 362.047791,58.064426 
	C361.815186,54.583008 362.000427,51.073662 362.000061,47.576740 
	C361.999268,40.057709 361.999329,40.057709 354.073181,38.214581 
	C354.073181,46.712887 354.073181,55.114483 354.073181,64.320007 
	C349.716003,63.386578 345.998383,62.590160 342.176483,61.771400 
	C342.176483,41.824284 342.176483,22.220417 342.176483,2.336406 
	C344.072174,2.119231 345.830414,1.917800 347.794342,1.358185 
	C348.444458,1.000000 348.888885,1.000000 349.666687,1.000000 
M354.000000,23.286690 
	C353.353302,26.373743 354.510742,28.683392 357.672760,28.720406 
	C361.121490,28.760778 362.432892,26.361427 362.022034,22.987011 
	C361.882507,21.841259 362.000916,20.664223 361.999817,19.501484 
	C361.992828,12.063182 360.964569,11.223305 354.000000,12.460008 
	C354.000000,15.820284 354.000000,19.092508 354.000000,23.286690 
z"/>
<path fill="#974EDE" opacity="1.000000" stroke="none" 
	d="
M320.533142,0.999998 
	C321.348602,1.307018 321.673401,1.849089 322.049255,1.887158 
	C336.619843,3.362990 337.281006,12.267427 335.311615,24.008364 
	C334.902771,26.445793 332.613403,28.567791 331.856415,29.774225 
	C333.266754,33.597195 335.428528,37.219559 335.821167,41.024475 
	C336.476410,47.374508 335.999939,53.841309 335.999939,61.021252 
	C333.415039,60.435562 330.096161,59.983978 327.045898,58.825256 
	C326.014557,58.433472 325.212250,56.290249 325.091522,54.880108 
	C324.808380,51.574001 325.001129,48.227207 324.999847,44.896881 
	C324.996552,36.336235 324.996246,36.336235 316.166199,34.178089 
	C316.166199,42.000816 316.166199,49.722927 316.166199,57.827187 
	C311.840454,57.136913 308.079041,56.536694 304.692505,55.996292 
	C304.692505,37.576405 304.692505,19.681658 304.846252,1.393456 
	C310.022095,1.000000 315.044189,1.000000 320.533142,0.999998 
M316.000000,20.287565 
	C316.391205,22.097256 314.741333,25.003160 318.326508,25.114889 
	C320.102783,25.170244 323.381683,24.863531 323.446503,24.380548 
	C323.947327,20.648348 324.487152,16.661938 323.570892,13.128796 
	C323.212616,11.747289 319.152405,11.325850 316.000000,10.185650 
	C316.000000,14.139545 316.000000,16.748432 316.000000,20.287565 
z"/>
<path fill="#974EDE" opacity="1.000000" stroke="none" 
	d="
M127.531601,1.000000 
	C140.306244,7.119637 141.830460,11.184903 136.871368,24.440939 
	C136.567764,25.252518 136.498856,26.242544 136.620117,27.107582 
	C137.365540,32.425289 138.286163,37.719555 138.965790,43.044937 
	C139.358200,46.119717 139.407852,49.238235 139.621918,52.491264 
	C136.767502,52.952145 133.730286,53.721992 130.684158,53.758987 
	C129.804535,53.769672 128.242432,51.735611 128.128845,50.531818 
	C127.786156,46.899792 128.013641,43.215023 127.997406,39.550915 
	C127.968094,32.935219 126.426796,31.625975 119.017876,32.409397 
	C119.017876,39.746578 119.017876,47.162731 119.017876,54.689545 
	C114.836037,55.209183 111.184662,55.662903 107.000000,56.182896 
	C107.000000,40.028835 106.958870,24.576431 107.042603,9.124703 
	C107.055756,6.697124 107.635132,4.272614 107.976349,1.423342 
	C114.354401,1.000000 120.708794,1.000000 127.531601,1.000000 
M127.999756,16.565945 
	C127.428207,10.412885 125.850441,9.332267 119.324028,10.652237 
	C119.324028,15.022983 119.324028,19.394714 119.324028,23.737015 
	C126.317917,24.237253 127.451546,23.377575 127.999756,16.565945 
z"/>
<path fill="#974EDE" opacity="1.000000" stroke="none" 
	d="
M57.545891,1.000000 
	C65.076698,5.077487 69.871735,10.359950 67.525047,19.665791 
	C64.296310,19.665791 60.905605,19.665791 57.211365,19.665791 
	C57.136272,18.431671 56.894741,17.288952 57.032452,16.193928 
	C57.441105,12.944525 55.243011,10.906199 52.901577,11.422742 
	C50.981258,11.846383 48.449165,14.650085 48.230511,16.624901 
	C47.673531,21.655354 51.044716,25.093536 54.887386,27.985794 
	C60.500744,32.210800 66.271988,35.963657 68.232475,43.727551 
	C70.240791,51.680832 64.812523,61.940884 58.126884,64.389008 
	C48.719688,67.833687 43.554493,68.685692 39.398071,62.543835 
	C36.858047,58.790504 36.318447,53.683407 34.709198,48.648666 
	C39.909294,47.928635 43.587635,47.419315 47.854790,46.828465 
	C47.854790,49.943699 47.854790,52.691902 47.854790,57.198757 
	C51.315357,55.647713 54.628094,55.211102 55.931728,53.359760 
	C58.620377,49.541519 57.148457,45.261089 54.111202,42.154373 
	C50.467236,38.427067 46.149868,35.366478 42.373081,31.756685 
	C40.786690,30.240438 39.531460,28.189053 38.651661,26.153601 
	C33.879230,15.112400 36.945183,6.995137 47.861637,1.321153 
	C51.030594,1.000000 54.061188,1.000000 57.545891,1.000000 
z"/>
<path fill="#974EDE" opacity="1.000000" stroke="none" 
	d="
M289.533875,1.000000 
	C291.805817,10.279578 293.569489,19.567614 295.429596,28.836296 
	C297.212036,37.718185 299.094635,46.579979 300.980377,55.678146 
	C296.881989,55.331631 293.208282,55.021023 289.422607,54.700951 
	C288.838745,51.243290 288.272583,47.890568 287.661194,44.269802 
	C284.247925,44.069084 280.159912,42.643620 277.679718,44.051182 
	C275.630402,45.214214 275.481415,49.725784 274.316162,53.285980 
	C270.906372,52.770206 267.564758,52.264744 264.252533,51.763729 
	C267.877625,34.908955 271.436401,18.362488 274.997589,1.408012 
	C279.689240,1.000000 284.378510,1.000000 289.533875,1.000000 
M282.992279,18.043898 
	C282.351654,18.040361 281.171539,17.931011 281.148499,18.048611 
	C280.369171,22.021629 279.570862,25.999359 279.046417,30.011845 
	C278.343170,35.392014 280.406189,36.867413 285.821838,35.090672 
	C284.880890,29.678354 283.940430,24.269049 282.992279,18.043898 
z"/>
<path fill="#974EDE" opacity="1.000000" stroke="none" 
	d="
M201.533875,1.000000 
	C204.863678,13.726266 207.738312,26.450083 210.583572,39.180466 
	C211.328552,42.513718 211.982315,45.867355 212.758926,49.600937 
	C209.070663,49.600937 205.389511,49.600937 201.485489,49.600937 
	C200.884598,46.933998 200.250946,44.121616 199.589676,41.186691 
	C196.272736,41.186691 193.141159,41.186691 189.966797,41.186691 
	C188.408813,44.355019 187.555847,48.565701 184.986237,50.524780 
	C182.962708,52.067532 178.823074,50.834679 176.234283,50.834679 
	C179.927429,34.023598 183.463409,17.928017 186.999695,1.416217 
	C191.689255,1.000000 196.378510,1.000000 201.533875,1.000000 
M192.424438,22.104362 
	C191.917191,25.578224 191.409943,29.052084 190.878906,32.688766 
	C193.649216,32.688766 195.712631,32.688766 198.025803,32.688766 
	C196.918106,27.019444 195.879013,21.701180 194.839905,16.382917 
	C194.444641,16.377865 194.049377,16.372814 193.654099,16.367764 
	C193.390045,18.039070 193.125992,19.710377 192.424438,22.104362 
z"/>
<path fill="#974EDE" opacity="1.000000" stroke="none" 
	d="
M168.890076,9.041308 
	C165.173401,9.526647 161.456711,10.011987 157.020721,10.591257 
	C157.020721,13.521911 157.020721,16.776241 156.778442,20.705608 
	C157.194778,22.556171 157.853394,23.731697 158.512024,24.907227 
	C159.341553,23.660208 160.171097,22.413187 161.000641,21.166166 
	C164.112946,21.166166 167.225266,21.166166 170.667267,21.166166 
	C170.667267,23.700209 170.667267,26.068373 170.667267,28.567223 
	C166.132019,29.010845 161.678879,29.446436 157.020554,29.902098 
	C157.020554,34.461021 157.020554,38.243389 156.771759,42.720230 
	C156.878662,44.570461 157.234344,45.726219 157.590027,46.881981 
	C158.393539,45.643383 159.197067,44.404785 160.000580,43.166183 
	C164.450821,43.166180 168.901062,43.166180 173.673431,43.166180 
	C173.673431,45.733120 173.673431,48.104950 173.673431,50.841137 
	C164.222275,51.322617 154.917694,51.796627 145.000000,52.301872 
	C145.000000,35.019180 145.000000,18.478247 145.000000,1.468657 
	C154.354233,1.000000 163.708450,1.000000 173.531342,1.000000 
	C173.922287,3.516999 173.844559,6.033997 173.133301,8.787352 
	C172.296555,9.029574 172.093307,9.035441 171.890076,9.041309 
	C171.494415,9.031091 171.098755,9.020873 170.101440,9.017181 
	C169.296555,9.029574 169.093307,9.035441 168.890076,9.041308 
z"/>
<path fill="#974EDE" opacity="1.000000" stroke="none" 
	d="
M103.531342,1.000000 
	C104.000000,4.133446 104.000000,7.266891 104.000000,10.798591 
	C100.350418,10.798591 97.077751,10.798591 93.000015,10.798591 
	C93.000015,12.940426 93.000015,14.687745 93.000015,16.435064 
	C92.999985,28.765066 92.849892,41.097916 93.084106,53.423470 
	C93.162437,57.545952 91.711563,59.139343 87.707588,59.053368 
	C85.781624,59.012012 83.843369,59.543339 81.455200,59.879433 
	C81.455200,43.701149 81.455200,27.579168 81.455200,10.876044 
	C78.122536,11.268747 74.932091,11.644691 71.356262,12.066048 
	C71.356262,8.719515 71.356262,5.649329 71.356262,2.340088 
	C72.739464,2.134452 74.170410,1.921719 75.800674,1.354493 
	C85.020897,1.000000 94.041786,1.000000 103.531342,1.000000 
z"/>
<path fill="#FFFFFF" opacity="1.000000" stroke="none" 
	d="
M244.536819,1.000000 
	C243.331696,9.634809 241.681259,18.273163 239.970901,26.899635 
	C239.771942,27.903215 239.241135,28.841002 237.830780,29.759352 
	C235.979324,20.421289 234.127869,11.083228 232.138214,1.372583 
	C236.024551,1.000000 240.049088,1.000000 244.536819,1.000000 
z"/>
<path fill="#974EDE" opacity="1.000000" stroke="none" 
	d="
M160.614761,21.100746 
	C160.171097,22.413187 159.341553,23.660208 158.512024,24.907227 
	C157.853394,23.731697 157.194778,22.556171 156.818298,21.162937 
	C158.143250,20.975262 159.186066,21.005293 160.614761,21.100746 
z"/>
<path fill="#974EDE" opacity="1.000000" stroke="none" 
	d="
M159.642151,43.100636 
	C159.197067,44.404785 158.393539,45.643383 157.590027,46.881981 
	C157.234344,45.726219 156.878662,44.570461 156.811401,43.179680 
	C157.827789,42.974804 158.555756,43.004944 159.642151,43.100636 
z"/>
<path fill="#974EDE" opacity="1.000000" stroke="none" 
	d="
M168.991013,9.274069 
	C169.093307,9.035441 169.296555,9.029574 169.804901,9.032467 
	C169.770645,9.196427 169.431305,9.351627 168.991013,9.274069 
z"/>
<path fill="#974EDE" opacity="1.000000" stroke="none" 
	d="
M171.991013,9.274069 
	C172.093307,9.035441 172.296555,9.029574 172.804901,9.032467 
	C172.770645,9.196427 172.431305,9.351627 171.991013,9.274069 
z"/>
<path fill="#FFFFFF" opacity="1.000000" stroke="none" 
	d="
M354.000000,22.825710 
	C354.000000,19.092508 354.000000,15.820284 354.000000,12.460008 
	C360.964569,11.223305 361.992828,12.063182 361.999817,19.501484 
	C362.000916,20.664223 361.882507,21.841259 362.022034,22.987011 
	C362.432892,26.361427 361.121490,28.760778 357.672760,28.720406 
	C354.510742,28.683392 353.353302,26.373743 354.000000,22.825710 
z"/>
<path fill="#FFFFFF" opacity="1.000000" stroke="none" 
	d="
M316.000000,19.822441 
	C316.000000,16.748432 316.000000,14.139545 316.000000,10.185650 
	C319.152405,11.325850 323.212616,11.747289 323.570892,13.128796 
	C324.487152,16.661938 323.947327,20.648348 323.446503,24.380548 
	C323.381683,24.863531 320.102783,25.170244 318.326508,25.114889 
	C314.741333,25.003160 316.391205,22.097256 316.000000,19.822441 
z"/>
<path fill="#FFFFFF" opacity="1.000000" stroke="none" 
	d="
M127.999756,16.996330 
	C127.451546,23.377575 126.317917,24.237253 119.324028,23.737015 
	C119.324028,19.394714 119.324028,15.022983 119.324028,10.652237 
	C125.850441,9.332267 127.428207,10.412885 127.999756,16.996330 
z"/>
<path fill="#FFFFFF" opacity="1.000000" stroke="none" 
	d="
M282.996124,18.451820 
	C283.940430,24.269049 284.880890,29.678354 285.821838,35.090672 
	C280.406189,36.867413 278.343170,35.392014 279.046417,30.011845 
	C279.570862,25.999359 280.369171,22.021629 281.148499,18.048611 
	C281.171539,17.931011 282.351654,18.040361 282.996124,18.451820 
z"/>
<path fill="#FFFFFF" opacity="1.000000" stroke="none" 
	d="
M192.643188,21.743023 
	C193.125992,19.710377 193.390045,18.039070 193.654099,16.367764 
	C194.049377,16.372814 194.444641,16.377865 194.839905,16.382917 
	C195.879013,21.701180 196.918106,27.019444 198.025803,32.688766 
	C195.712631,32.688766 193.649216,32.688766 190.878906,32.688766 
	C191.409943,29.052084 191.917191,25.578224 192.643188,21.743023 
z"/>
</svg>