<?xml version="1.0" encoding="UTF-8"?>
<svg xmlns="http://www.w3.org/2000/svg" xmlns:xlink="http://www.w3.org/1999/xlink" width="32px" height="32px" viewBox="0 0 32 32" version="1.1">
<defs>
<linearGradient id="linear0" gradientUnits="userSpaceOnUse" x1="0.34012" y1="0" x2="0.76373" y2="0.76805" gradientTransform="matrix(1024,0,0,1024,0,0)">
<stop offset="0" style="stop-color:rgb(44.705882%,70.588235%,96.078431%);stop-opacity:1;"/>
<stop offset="1" style="stop-color:rgb(20.784314%,43.137255%,74.901961%);stop-opacity:1;"/>
</linearGradient>
</defs>
<g id="surface3">
<path style="fill-rule:evenodd;fill:url(#linear0);stroke-width:32;stroke-linecap:butt;stroke-linejoin:miter;stroke:rgb(85.490197%,93.725491%,100%);stroke-opacity:1;stroke-miterlimit:4;" d="M 1008 512 C 1008 238.125 785.875 16 512 16 C 238.125 16 16 238.125 16 512 C 16 785.875 238.125 1008 512 1008 C 785.875 1008 1008 785.875 1008 512 Z M 1008 512 " transform="matrix(0.03125,0,0,0.03125,0,0)"/>
<path style=" stroke:none;fill-rule:evenodd;fill:rgb(100%,100%,100%);fill-opacity:1;" d="M 22.277344 10.386719 C 23.667969 10.386719 24.742188 10.863281 25.507812 11.816406 C 26.28125 12.761719 26.664062 14.101562 26.664062 15.835938 C 26.664062 17.570312 26.277344 18.921875 25.5 19.886719 C 24.726562 20.84375 23.652344 21.324219 22.277344 21.324219 C 21.589844 21.324219 20.960938 21.199219 20.386719 20.945312 C 19.820312 20.691406 19.347656 20.296875 18.960938 19.769531 L 18.84375 19.769531 L 18.507812 21.128906 L 17.359375 21.128906 L 17.359375 6.125 L 18.960938 6.125 L 18.960938 9.769531 C 18.960938 10.585938 18.933594 11.320312 18.882812 11.96875 L 18.960938 11.96875 C 19.707031 10.914062 20.8125 10.386719 22.277344 10.386719 Z M 22.046875 11.726562 C 20.953125 11.726562 20.167969 12.042969 19.683594 12.671875 C 19.203125 13.296875 18.960938 14.351562 18.960938 15.835938 C 18.960938 17.320312 19.207031 18.386719 19.703125 19.027344 C 20.199219 19.664062 20.992188 19.984375 22.085938 19.984375 C 23.070312 19.984375 23.800781 19.625 24.285156 18.914062 C 24.765625 18.191406 25.007812 17.160156 25.007812 15.816406 C 25.007812 14.441406 24.765625 13.414062 24.285156 12.742188 C 23.800781 12.066406 23.054688 11.726562 22.046875 11.726562 Z M 22.046875 11.726562 "/>
<path style=" stroke:none;fill-rule:evenodd;fill:rgb(78.431374%,90.980393%,100%);fill-opacity:1;" d="M 9.914062 19.984375 C 10.980469 19.984375 11.761719 19.695312 12.25 19.125 C 12.738281 18.550781 12.996094 17.589844 13.03125 16.230469 L 13.03125 15.875 C 13.03125 14.394531 12.777344 13.332031 12.277344 12.683594 C 11.777344 12.035156 10.980469 11.707031 9.894531 11.707031 C 8.957031 11.707031 8.238281 12.074219 7.734375 12.808594 C 7.242188 13.535156 6.992188 14.5625 6.992188 15.894531 C 6.992188 17.226562 7.238281 18.242188 7.726562 18.941406 C 8.222656 19.636719 8.949219 19.984375 9.914062 19.984375 Z M 9.671875 21.324219 C 8.3125 21.324219 7.246094 20.84375 6.480469 19.886719 C 5.714844 18.929688 5.335938 17.589844 5.335938 15.875 C 5.335938 14.144531 5.71875 12.796875 6.492188 11.824219 C 7.261719 10.855469 8.335938 10.367188 9.710938 10.367188 C 11.160156 10.367188 12.269531 10.914062 13.050781 12.007812 L 13.136719 12.007812 L 13.367188 10.5625 L 14.628906 10.5625 L 14.628906 25.875 L 13.03125 25.875 L 13.03125 21.351562 C 13.03125 20.710938 13.066406 20.164062 13.136719 19.710938 L 13.011719 19.710938 C 12.269531 20.785156 11.160156 21.324219 9.671875 21.324219 Z M 9.671875 21.324219 "/>
</g>
</svg>
